<svg width="24" height="24" viewBox="0 0 24 24" fill="none" xmlns="http://www.w3.org/2000/svg">
                                <title>giftcard icon</title>
                                <g opacity=".92" fill="#000"><path d="M16 15.6h2.2a.6.6 0 000-1.2H16a.6.6 0 000 1.2z"/><path d="M21 4.5H3a1 1 0 00-1 1v13a1 1 0 001 1h18a1 1 0 001-1v-13a1 1 0 00-1-1zM3.5 6h4.9v1.66a2.12 2.12 0 00-.69-.47 1.9 1.9 0 00-.39-.11 1.75 1.75 0 00-.4 0c-.258 0-.513.05-.75.15a2.12 2.12 0 00-.69.47 2.23 2.23 0 000 3c.078.077.166.144.26.2H3.5V6zM8 10.32a4.709 4.709 0 01-1.7-.45 1 1 0 010-1.38.86.86 0 01.61-.25.85.85 0 01.61.25A4.47 4.47 0 018 10.32zM8.4 18H3.5v-5.9H7l-1.42 1.38a.59.59 0 000 .85.6.6 0 00.84 0l2-2L8.4 18zm12.1 0H9.6v-5.65l2 2a.6.6 0 00.974-.656.59.59 0 00-.134-.194l-1.39-1.4h9.45V18zM10 10.32a5.16 5.16 0 01.46-1.83.85.85 0 01.61-.25.86.86 0 01.61.25 1 1 0 010 1.37 4.42 4.42 0 01-1.68.46zm10.48.58h-8.15a1.45 1.45 0 00.23-.19 2 2 0 00.26-.33 2.22 2.22 0 000-2.38 1.64 1.64 0 00-.26-.33 1.579 1.579 0 00-.32-.27 1.9 1.9 0 00-.37-.2 2.13 2.13 0 00-1.57 0 2.23 2.23 0 00-.69.47V6H20.5l-.02 4.9z"/></g></svg>