<svg width="24" height="24" viewBox="0 0 24 24" fill="none" xmlns="http://www.w3.org/2000/svg">
                                <title>help icon</title>
                                <g opacity=".92" fill="#000"><path d="M12 4.5c4.1 0 7.5 3.4 7.5 7.5s-3.4 7.5-7.5 7.5-7.5-3.4-7.5-7.5S7.9 4.5 12 4.5zM12 3c-5 0-9 4-9 9s4 9 9 9 9-4 9-9-4-9-9-9z"/><path d="M12 16.4a.8.8 0 100-1.6.8.8 0 000 1.6zM12 13.6c-.4 0-.7-.3-.8-.8v-1.4c0-.4.3-.8.8-.8.6 0 1.2-.5 1.2-1.1 0-.6-.5-1.2-1.1-1.2-.6 0-1.2.5-1.2 1.1 0 .4-.3.8-.8.8s-.7-.2-.7-.7c0-1.5 1.2-2.6 2.7-2.6 1.5 0 2.6 1.2 2.6 2.7 0 1.2-.8 2.2-1.9 2.5v.8c-.1.4-.4.7-.8.7z"/></g></svg>