<svg width="24" height="24" viewBox="0 0 24 24" fill="none" xmlns="http://www.w3.org/2000/svg">
    <path d="M20 9.43998C19.831 9.4421 19.663 9.46562 19.5 9.50998C19.5753 8.47901 19.4373 7.44358 19.0945 6.46834C18.7518 5.49311 18.2116 4.59901 17.5078 3.8419C16.804 3.08478 15.9517 2.48089 15.004 2.06796C14.0563 1.65502 13.0337 1.44189 12 1.44189C10.9663 1.44189 9.94366 1.65502 8.996 2.06796C8.04834 2.48089 7.196 3.08478 6.49219 3.8419C5.78838 4.59901 5.24822 5.49311 4.90545 6.46834C4.56268 7.44358 4.42466 8.47901 4.5 9.50998C4.33712 9.46486 4.16901 9.44132 4 9.43998C3.46957 9.43998 2.96086 9.6507 2.58579 10.0258C2.21071 10.4008 2 10.9095 2 11.44V14C2 14.5304 2.21071 15.0391 2.58579 15.4142C2.96086 15.7893 3.46957 16 4 16C4.53043 16 5.03914 15.7893 5.41421 15.4142C5.78929 15.0391 6 14.5304 6 14V11.44C6.00441 11.4068 6.00441 11.3732 6 11.34V9.49998C6 7.90868 6.63214 6.38256 7.75736 5.25734C8.88258 4.13212 10.4087 3.49998 12 3.49998C13.5913 3.49998 15.1174 4.13212 16.2426 5.25734C17.3679 6.38256 18 7.90868 18 9.49998V14C17.9998 14.2913 18.0632 14.5792 18.1858 14.8435C18.3085 15.1078 18.4874 15.3421 18.71 15.53C18.3315 16.3772 17.7802 17.1359 17.0914 17.7576C16.4025 18.3792 15.5914 18.8501 14.71 19.14C14.5744 18.9418 14.3923 18.7798 14.1796 18.6682C13.9669 18.5566 13.7302 18.4989 13.49 18.5H12.49C12.0922 18.5 11.7106 18.658 11.4293 18.9393C11.148 19.2206 10.99 19.6022 10.99 20C10.99 20.3978 11.148 20.7793 11.4293 21.0606C11.7106 21.3419 12.0922 21.5 12.49 21.5H13.49C13.7743 21.4978 14.0522 21.4149 14.2912 21.2609C14.5303 21.1068 14.7206 20.888 14.84 20.63C14.8963 20.6397 14.9537 20.6397 15.01 20.63C16.1282 20.2871 17.1597 19.7078 18.0344 18.9314C18.9092 18.155 19.6068 17.1996 20.08 16.13C20.0848 16.0901 20.0848 16.0498 20.08 16.01C20.5982 15.9892 21.088 15.768 21.4463 15.393C21.8045 15.018 22.003 14.5186 22 14V11.44C22 10.9095 21.7893 10.4008 21.4142 10.0258C21.0391 9.6507 20.5304 9.43998 20 9.43998ZM4 14.5C3.86739 14.5 3.74021 14.4473 3.64645 14.3535C3.55268 14.2598 3.5 14.1326 3.5 14V11.44C3.50256 11.3082 3.55606 11.1825 3.64928 11.0893C3.7425 10.996 3.86819 10.9425 4 10.94C4.12331 10.9396 4.24225 10.9857 4.33307 11.0691C4.4239 11.1525 4.47993 11.2671 4.49 11.39V12.55V14C4.49003 14.1309 4.43872 14.2566 4.34711 14.35C4.25549 14.4435 4.13087 14.4974 4 14.5ZM20.51 14C20.51 14.1326 20.4573 14.2598 20.3636 14.3535C20.2698 14.4473 20.1426 14.5 20.01 14.5C19.8774 14.5 19.7502 14.4473 19.6564 14.3535C19.5627 14.2598 19.51 14.1326 19.51 14V11.41C19.5177 11.2826 19.5737 11.163 19.6666 11.0757C19.7596 10.9883 19.8824 10.9398 20.01 10.94C20.1418 10.9425 20.2675 10.996 20.3607 11.0893C20.4539 11.1825 20.5074 11.3082 20.51 11.44V14Z" fill="#D7006C"/>
    <path d="M15.17 14.91C15.2814 14.7443 15.3224 14.541 15.2839 14.3451C15.2455 14.1491 15.1307 13.9764 14.965 13.865C14.7992 13.7536 14.596 13.7126 14.4 13.7511C14.204 13.7895 14.0314 13.9043 13.92 14.07C13.7137 14.3921 13.4298 14.6571 13.0942 14.8406C12.7587 15.0242 12.3824 15.1204 12 15.1204C11.6175 15.1204 11.2412 15.0242 10.9057 14.8406C10.5702 14.6571 10.2862 14.3921 10.08 14.07C9.96859 13.9043 9.79591 13.7895 9.59994 13.7511C9.40396 13.7126 9.20074 13.7536 9.03498 13.865C8.86922 13.9764 8.7545 14.1491 8.71605 14.3451C8.67761 14.541 8.71859 14.7443 8.82998 14.91C9.17474 15.4361 9.64503 15.8682 10.1984 16.1672C10.7518 16.4662 11.371 16.6227 12 16.6227C12.629 16.6227 13.2481 16.4662 13.8015 16.1672C14.3549 15.8682 14.8252 15.4361 15.17 14.91Z" fill="#D7006C"/>
</svg>
