<svg width="24" height="24" viewBox="0 0 24 24" fill="none" xmlns="http://www.w3.org/2000/svg">
                                <title>address icon</title>
                                <g opacity=".92" fill="#000"><path d="M12 8a2.01 2.01 0 110 4 2.01 2.01 0 110-4zm0-1.5a4 4 0 00-.68.06 3.5 3.5 0 00.68 6.93 3.5 3.5 0 000-7v.01z"/><path d="M12 3.5a6.94 6.94 0 012.22.37 6.53 6.53 0 014.28 6.47 6.6 6.6 0 01-1.78 4.49L12 20.24l-4.7-5.38a6.94 6.94 0 01-1.8-4.65A6.62 6.62 0 0112 3.5zM12 2a8.09 8.09 0 00-8 8.21 8.42 8.42 0 002.15 5.61l5.1 5.83a1.001 1.001 0 001.5 0l5.1-5.83A8.05 8.05 0 0020 10.36a8 8 0 00-5.31-7.91A8.34 8.34 0 0012 2z"/></g></svg>